<mxfile host="app.diagrams.net" modified="2023-05-21T15:53:33.401Z" agent="Mozilla/5.0 (Windows NT 10.0; Win64; x64) AppleWebKit/537.36 (KHTML, like Gecko) Chrome/113.0.0.0 Safari/537.36 Edg/113.0.1774.50" etag="FoXjWRmm42jGVsR8OD89" version="21.3.2" type="github">
  <diagram name="페이지-1" id="2TTsLSDMo29BazJem8WV">
    <mxGraphModel dx="875" dy="451" grid="1" gridSize="10" guides="1" tooltips="1" connect="1" arrows="1" fold="1" page="1" pageScale="1" pageWidth="827" pageHeight="1169" math="0" shadow="0">
      <root>
        <mxCell id="0" />
        <mxCell id="1" parent="0" />
        <mxCell id="8ldgtPWpIAdvo0hesViz-1" value="&lt;h1&gt;사용자 상호작용&lt;/h1&gt;&lt;p&gt;주요 기능과 사용자 상호작용과 관련된 정리된 모듈&lt;/p&gt;&lt;p&gt;모듈 넘버 : 1&lt;/p&gt;" style="text;html=1;strokeColor=none;fillColor=none;spacing=5;spacingTop=-20;whiteSpace=wrap;overflow=hidden;rounded=0;" vertex="1" parent="1">
          <mxGeometry x="20" y="20" width="190" height="120" as="geometry" />
        </mxCell>
        <mxCell id="8ldgtPWpIAdvo0hesViz-25" value="" style="edgeStyle=orthogonalEdgeStyle;rounded=0;orthogonalLoop=1;jettySize=auto;html=1;" edge="1" parent="1" source="8ldgtPWpIAdvo0hesViz-2" target="8ldgtPWpIAdvo0hesViz-24">
          <mxGeometry relative="1" as="geometry" />
        </mxCell>
        <mxCell id="8ldgtPWpIAdvo0hesViz-2" value="시작" style="rounded=0;whiteSpace=wrap;html=1;" vertex="1" parent="1">
          <mxGeometry x="50" y="260" width="120" height="40" as="geometry" />
        </mxCell>
        <mxCell id="8ldgtPWpIAdvo0hesViz-11" value="List - 1" style="swimlane;fontStyle=0;childLayout=stackLayout;horizontal=1;startSize=30;horizontalStack=0;resizeParent=1;resizeParentMax=0;resizeLast=0;collapsible=1;marginBottom=0;whiteSpace=wrap;html=1;" vertex="1" parent="1">
          <mxGeometry x="334" y="90" width="160" height="120" as="geometry" />
        </mxCell>
        <mxCell id="8ldgtPWpIAdvo0hesViz-12" value="잠은 왜 자야 하는가?" style="text;strokeColor=none;fillColor=none;align=left;verticalAlign=middle;spacingLeft=4;spacingRight=4;overflow=hidden;points=[[0,0.5],[1,0.5]];portConstraint=eastwest;rotatable=0;whiteSpace=wrap;html=1;" vertex="1" parent="8ldgtPWpIAdvo0hesViz-11">
          <mxGeometry y="30" width="160" height="30" as="geometry" />
        </mxCell>
        <mxCell id="8ldgtPWpIAdvo0hesViz-13" value="잠은 언제 자야 하는가?" style="text;strokeColor=none;fillColor=none;align=left;verticalAlign=middle;spacingLeft=4;spacingRight=4;overflow=hidden;points=[[0,0.5],[1,0.5]];portConstraint=eastwest;rotatable=0;whiteSpace=wrap;html=1;" vertex="1" parent="8ldgtPWpIAdvo0hesViz-11">
          <mxGeometry y="60" width="160" height="30" as="geometry" />
        </mxCell>
        <mxCell id="8ldgtPWpIAdvo0hesViz-14" value="지금 자면 언제 일어나는가?" style="text;strokeColor=none;fillColor=none;align=left;verticalAlign=middle;spacingLeft=4;spacingRight=4;overflow=hidden;points=[[0,0.5],[1,0.5]];portConstraint=eastwest;rotatable=0;whiteSpace=wrap;html=1;" vertex="1" parent="8ldgtPWpIAdvo0hesViz-11">
          <mxGeometry y="90" width="160" height="30" as="geometry" />
        </mxCell>
        <mxCell id="8ldgtPWpIAdvo0hesViz-15" value="List - 2" style="swimlane;fontStyle=0;childLayout=stackLayout;horizontal=1;startSize=30;horizontalStack=0;resizeParent=1;resizeParentMax=0;resizeLast=0;collapsible=1;marginBottom=0;whiteSpace=wrap;html=1;" vertex="1" parent="1">
          <mxGeometry x="470" y="250" width="140" height="90" as="geometry" />
        </mxCell>
        <mxCell id="8ldgtPWpIAdvo0hesViz-16" value="수면 퀴즈 응시하기" style="text;strokeColor=none;fillColor=none;align=left;verticalAlign=middle;spacingLeft=4;spacingRight=4;overflow=hidden;points=[[0,0.5],[1,0.5]];portConstraint=eastwest;rotatable=0;whiteSpace=wrap;html=1;" vertex="1" parent="8ldgtPWpIAdvo0hesViz-15">
          <mxGeometry y="30" width="140" height="30" as="geometry" />
        </mxCell>
        <mxCell id="8ldgtPWpIAdvo0hesViz-17" value="잠을 깨는 방법" style="text;strokeColor=none;fillColor=none;align=left;verticalAlign=middle;spacingLeft=4;spacingRight=4;overflow=hidden;points=[[0,0.5],[1,0.5]];portConstraint=eastwest;rotatable=0;whiteSpace=wrap;html=1;" vertex="1" parent="8ldgtPWpIAdvo0hesViz-15">
          <mxGeometry y="60" width="140" height="30" as="geometry" />
        </mxCell>
        <mxCell id="8ldgtPWpIAdvo0hesViz-19" value="Quick-Button" style="swimlane;fontStyle=0;childLayout=stackLayout;horizontal=1;startSize=30;horizontalStack=0;resizeParent=1;resizeParentMax=0;resizeLast=0;collapsible=1;marginBottom=0;whiteSpace=wrap;html=1;" vertex="1" parent="1">
          <mxGeometry x="330" y="370" width="140" height="90" as="geometry" />
        </mxCell>
        <mxCell id="8ldgtPWpIAdvo0hesViz-20" value="빨리 잠드는 비밀" style="text;strokeColor=none;fillColor=none;align=left;verticalAlign=middle;spacingLeft=4;spacingRight=4;overflow=hidden;points=[[0,0.5],[1,0.5]];portConstraint=eastwest;rotatable=0;whiteSpace=wrap;html=1;" vertex="1" parent="8ldgtPWpIAdvo0hesViz-19">
          <mxGeometry y="30" width="140" height="30" as="geometry" />
        </mxCell>
        <mxCell id="8ldgtPWpIAdvo0hesViz-21" value="도움말 &amp;amp; 원리" style="text;strokeColor=none;fillColor=none;align=left;verticalAlign=middle;spacingLeft=4;spacingRight=4;overflow=hidden;points=[[0,0.5],[1,0.5]];portConstraint=eastwest;rotatable=0;whiteSpace=wrap;html=1;" vertex="1" parent="8ldgtPWpIAdvo0hesViz-19">
          <mxGeometry y="60" width="140" height="30" as="geometry" />
        </mxCell>
        <mxCell id="8ldgtPWpIAdvo0hesViz-26" value="" style="edgeStyle=orthogonalEdgeStyle;rounded=0;orthogonalLoop=1;jettySize=auto;html=1;" edge="1" parent="1" source="8ldgtPWpIAdvo0hesViz-24" target="8ldgtPWpIAdvo0hesViz-14">
          <mxGeometry relative="1" as="geometry" />
        </mxCell>
        <mxCell id="8ldgtPWpIAdvo0hesViz-27" value="" style="edgeStyle=orthogonalEdgeStyle;rounded=0;orthogonalLoop=1;jettySize=auto;html=1;" edge="1" parent="1" source="8ldgtPWpIAdvo0hesViz-24" target="8ldgtPWpIAdvo0hesViz-17">
          <mxGeometry relative="1" as="geometry" />
        </mxCell>
        <mxCell id="8ldgtPWpIAdvo0hesViz-28" value="" style="edgeStyle=orthogonalEdgeStyle;rounded=0;orthogonalLoop=1;jettySize=auto;html=1;" edge="1" parent="1" source="8ldgtPWpIAdvo0hesViz-24" target="8ldgtPWpIAdvo0hesViz-20">
          <mxGeometry relative="1" as="geometry" />
        </mxCell>
        <mxCell id="8ldgtPWpIAdvo0hesViz-24" value="버튼 보여주기" style="rounded=0;whiteSpace=wrap;html=1;" vertex="1" parent="1">
          <mxGeometry x="250" y="260" width="120" height="40" as="geometry" />
        </mxCell>
      </root>
    </mxGraphModel>
  </diagram>
</mxfile>
